PathFileType	4	(X/Y/Z)	..\data\2014022\dynamic\2014022_C5_02.trc
DataRate	CameraRate	NumFrames	NumMarkers	Units	OrigDataRate	OrigDataStartFrame	OrigNumFrames
100.000000	100.000000	4	52	mm	100.000000	72	145
Frame#	Time	L_IAS			L_IPS			R_IPS			R_IAS			L_FTC			L_FLE			L_FME			L_FAX			L_TTC			L_FAL			L_TAM			L_FCC			L_FM1			L_FM2			L_FM5			R_FTC			R_FLE			R_FME			R_FAX			R_TTC			R_FAL			R_TAM			R_FCC			R_FM1			R_FM2			R_FM5			CV7			TV10			SXS			SJN			L_SIA			L_SRS			L_SAA			L_SAE			L_HLE			L_HME			L_UOA			L_RSP			L_UHE			L_HM2			L_HM5			R_SIA			R_SRS			R_SAA			R_SAE			R_HLE			R_HME			R_UOA			R_RSP			R_UHE			R_HM2			R_HM5			
		X1	Y1	Z1	X2	Y2	Z2	X3	Y3	Z3	X4	Y4	Z4	X5	Y5	Z5	X6	Y6	Z6	X7	Y7	Z7	X8	Y8	Z8	X9	Y9	Z9	X10	Y10	Z10	X11	Y11	Z11	X12	Y12	Z12	X13	Y13	Z13	X14	Y14	Z14	X15	Y15	Z15	X16	Y16	Z16	X17	Y17	Z17	X18	Y18	Z18	X19	Y19	Z19	X20	Y20	Z20	X21	Y21	Z21	X22	Y22	Z22	X23	Y23	Z23	X24	Y24	Z24	X25	Y25	Z25	X26	Y26	Z26	X27	Y27	Z27	X28	Y28	Z28	X29	Y29	Z29	X30	Y30	Z30	X31	Y31	Z31	X32	Y32	Z32	X33	Y33	Z33	X34	Y34	Z34	X35	Y35	Z35	X36	Y36	Z36	X37	Y37	Z37	X38	Y38	Z38	X39	Y39	Z39	X40	Y40	Z40	X41	Y41	Z41	X42	Y42	Z42	X43	Y43	Z43	X44	Y44	Z44	X45	Y45	Z45	X46	Y46	Z46	X47	Y47	Z47	X48	Y48	Z48	X49	Y49	Z49	X50	Y50	Z50	X51	Y51	Z51	X52	Y52	Z52	

73	0.72	856.0938720703127	953.2473754882815	-378.8752746582032	665.9505004882814	966.619812011719	-300.8357849121094	673.0773925781251	975.2590942382815	-191.3822784423828	862.8892211914065	957.1939086914065	-132.7865295410157	778.8824462890627	887.6525878906252	-441.0338439941407	952.0821533203127	492.329315185547	-399.2391357421876	949.0828247070315	483.1461486816407	-260.9834594726563	908.4237060546877	460.7539978027345	-402.2572631835939	970.3150024414065	415.8433532714845	-352.2225646972657	695.1378784179689	194.6714324951172	-371.6579895019532	723.9307861328126	180.021957397461	-291.5518493652344	639.5433349609376	166.3013610839844	-321.0845336914063	778.472839355469	49.99679183959962	-315.9897460937501	791.8928222656252	75.33456420898439	-371.1907653808594	749.9538574218751	90.8407440185547	-411.5143127441407	777.1487426757815	886.1858520507815	-71.23598480224611	766.7445678710939	463.6104736328126	-132.6511383056641	758.1859130859376	469.8299255371095	-269.2396240234376	743.2640991210939	412.0585021972657	-132.7377014160157	806.8791503906252	400.6421813964845	-188.4929809570313	714.2600097656251	68.97703552246095	-188.2481994628907	722.0161132812501	78.57472229003908	-275.9385375976563	671.6591796875001	20.54287719726563	-231.0532226562501	848.8310546875002	22.91902542114258	-287.2778015136719	864.4026489257815	37.03283691406251	-228.5890502929688	824.9914550781252	22.75672149658203	-171.3052215576172	727.3308105468751	1443.357177734375	-273.7074279785157	649.5910034179689	1227.623657226563	-261.2466735839844	883.9393310546877	1157.457641601563	-274.1922912597657	842.8166503906252	1375.718139648438	-276.0368652343751	636.3749389648439	1259.520385742188	-346.5797424316407	681.4973144531251	1396.41064453125	-334.3876342773438	710.9599609375001	1402.214233398438	-404.9743652343751	761.7371215820314	1386.548217773438	-455.0924682617189	703.9630126953126	1072.594360351563	-503.2705078125001	710.8848266601564	1063.17236328125	-413.8689575195314	689.6260375976564	1040.811279296875	-465.9957885742189	855.0421142578127	864.2222290039065	-487.0342712402345	790.060974121094	854.4680175781252	-523.6023559570314	896.064880371094	793.5242309570315	-507.0012817382814	795.9896240234377	772.201843261719	-518.6408691406251	646.7391357421876	1258.772216796875	-174.9479675292969	690.9158325195314	1396.560302734375	-196.7644653320313	727.6386108398439	1401.1220703125	-119.0638580322266	777.143249511719	1401.596923828125	-89.96350860595705	771.3699340820315	1084.27392578125	-31.65538978576661	779.154724121094	1069.8603515625	-114.6397323608399	763.4293212890626	1058.42431640625	-63.98952102661134	919.1914062500002	883.9528808593752	-11.03691005706787	849.2508544921877	869.1822509765627	8.449249267578127	961.980895996094	809.1187133789065	16.38517570495606	862.6423339843752	783.7175903320315	5.03649663925171	
74	0.73	872.4265747070315	953.5725097656252	-378.6665344238282	681.4821777343751	967.0084228515627	-300.9311828613282	689.2924804687501	975.5090942382815	-191.1682739257813	878.8433837890627	955.678161621094	-133.4496459960938	794.1509399414065	887.9375000000002	-441.2023925781251	977.746765136719	496.3527221679689	-398.1228637695314	975.4871826171877	487.2137756347657	-260.1045532226563	935.2550048828127	462.6488647460939	-400.8675842285157	999.218688964844	420.2752380371095	-351.5570983886719	738.1314086914064	181.4551391601563	-371.8162841796876	767.7552490234376	168.9136962890625	-291.6262512207032	684.1925048828126	149.8588104248047	-321.1787109375001	832.2272949218752	43.82756423950196	-315.6901855468751	843.5337524414065	69.65415191650392	-371.0368652343751	800.0999755859377	81.40769958496095	-411.2087707519532	792.679382324219	885.4554443359377	-71.35388946533205	770.7483520507815	463.5718994140626	-132.4305572509766	761.0855102539064	470.1044921875001	-269.1804199218751	746.5401000976564	412.2774658203126	-132.535873413086	809.8554687500002	399.9837951660157	-188.4108276367188	714.5354614257814	69.42029571533205	-188.5638580322266	722.2828979492189	78.80404663085939	-276.1657104492188	671.7199707031251	21.10532951354981	-231.4375762939454	848.9234008789065	22.48575592041016	-287.3623962402344	864.6523437500002	36.62185668945313	-228.5035705566407	824.9202270507815	22.61149978637696	-171.3743286132813	743.3478393554689	1442.741333007813	-273.3028564453126	665.6401977539064	1226.975708007813	-260.0212402343751	900.474792480469	1157.596435546875	-274.2469177246094	858.7069091796877	1375.279052734375	-275.8614807128907	651.7904052734376	1258.871215820313	-345.1283569335938	697.3320312500001	1395.650512695313	-333.6572265625001	726.2577514648439	1401.356201171875	-404.2456054687501	776.6292114257815	1385.733276367188	-454.666229248047	715.2042846679689	1072.967895507813	-502.7668762207032	723.1192626953126	1063.348876953125	-413.322967529297	700.0934448242189	1042.197265625	-465.2866516113282	855.0913085937502	856.6831054687502	-489.4668579101564	789.2817993164065	851.336120605469	-525.4948730468751	891.163024902344	783.342956542969	-509.9547119140626	789.9524536132815	768.9001464843752	-520.8348999023439	663.4421386718751	1258.212036132813	-173.6358642578125	706.7673339843751	1396.156494140625	-196.2078247070313	744.0545654296876	1400.687133789063	-118.6954803466797	793.5032958984377	1401.449096679688	-89.79916381835939	791.4676513671877	1084.0048828125	-31.36894989013673	799.1024169921877	1070.039916992188	-114.4141616821289	784.1488037109377	1057.47119140625	-63.5791702270508	947.004333496094	888.5773925781252	-12.87027359008789	877.8411254882815	871.3353271484377	7.669782638549806	993.0047607421877	815.3967285156252	13.50060462951661	894.3978271484377	786.2028808593752	3.754559993743897	
75	0.74	888.914001464844	953.3818969726565	-378.4092102050782	697.1180419921876	966.8911132812502	-301.2991943359376	705.3303833007814	975.2770996093752	-191.2183532714844	894.5791015625002	953.8223876953127	-134.033676147461	809.8143310546877	887.6934204101565	-441.4693298339845	1002.226135253906	499.5793457031251	-397.0567626953126	1000.849792480469	490.5434570312501	-259.3680114746094	961.1833496093752	463.582977294922	-399.6820373535157	1027.069213867188	424.1118469238282	-350.9592895507813	782.403259277344	167.7596893310547	-371.7462158203126	812.8612060546877	157.56884765625	-291.5185852050782	730.6663208007814	133.1355895996094	-320.9893798828126	886.8748779296877	38.30362701416016	-315.0540771484376	895.8833618164065	64.2630081176758	-370.6105957031251	851.224548339844	72.10088348388673	-410.6209106445314	808.0549926757815	884.5041503906252	-71.4016571044922	775.1436157226565	463.4470825195314	-132.2268981933594	764.7534790039064	470.3915100097657	-269.0886230468751	750.2907104492189	412.4843139648439	-132.3604888916016	813.2277832031252	399.2264709472657	-188.3138427734375	714.9137573242189	69.94521331787111	-188.9700317382813	722.7013549804689	79.0975799560547	-276.5180053710938	671.8820190429689	21.76513862609864	-231.9580230712891	849.0554199218752	22.06039047241211	-287.4940795898438	864.896423339844	36.23729705810548	-228.4608306884766	824.828796386719	22.52527046203614	-171.4933013916016	759.4539794921876	1441.694702148438	-272.9184265136719	681.7222290039064	1225.932006835938	-258.9034118652344	917.002868652344	1157.26220703125	-274.1889648437501	874.6997070312502	1374.405639648438	-275.6690979003907	667.3365478515626	1257.7880859375	-343.7535095214844	713.2892456054689	1394.467895507813	-332.9409790039063	741.6907958984376	1400.085693359375	-403.5036621093751	791.6751708984377	1384.49072265625	-454.2299194335939	726.2954101562501	1073.025146484375	-502.2144775390626	735.2763671875001	1063.167236328125	-412.7491455078126	710.5930786132814	1043.285278320313	-464.5082092285157	854.8113403320315	849.6218261718752	-491.8130187988282	788.4263305664065	848.672302246094	-527.2563476562501	885.8692016601565	773.9975585937502	-512.8356933593751	783.9680175781252	766.3926391601564	-522.9330444335939	680.0919189453126	1257.28662109375	-172.4336242675782	722.7229003906251	1395.352172851563	-195.6540527343751	760.5649414062501	1399.8310546875	-118.3136825561524	809.8264160156252	1400.93408203125	-89.62935638427736	811.5880126953127	1083.320434570313	-31.09819412231446	819.072937011719	1069.811401367188	-114.1738357543946	804.905212402344	1056.153198242188	-63.19722747802736	974.6518554687502	893.1635742187502	-14.75212287902832	906.3740844726565	873.426208496094	6.776331901550295	1023.789978027344	821.749694824219	10.47813415527344	926.065856933594	788.803161621094	2.332939147949219	
76	0.75	905.552185058594	952.6333618164065	-378.1315917968751	712.8952026367189	966.2010498046877	-301.9291992187501	721.1671752929689	974.4956665039065	-191.5572662353516	910.0671997070315	951.6391601562502	-134.4698791503907	825.9165039062502	886.8857421875002	-441.812957763672	1025.44677734375	501.8779296875001	-396.0736083984376	1024.942504882813	492.9909057617189	-258.8079833984376	986.1563110351565	463.4559020996095	-398.7280578613282	1053.785766601563	427.2680969238282	-350.4124145507813	827.941101074219	153.9939422607422	-371.4138793945313	859.1795654296877	146.3817596435547	-291.1916809082032	778.9348144531252	116.5369949340821	-320.4820861816407	942.2534790039065	33.81436920166016	-314.1079711914063	948.8309326171877	59.59901428222658	-369.9255981445313	903.2868652343752	63.39803314208986	-409.7597961425782	823.1904296875002	883.3032226562502	-71.38169097900392	779.9756469726565	463.2280273437501	-132.0726013183594	769.2944335937502	470.6428833007814	-268.9983215332032	754.5420532226564	412.6676330566407	-132.2489624023438	817.0456542968752	398.3551330566407	-188.2247009277344	715.3941650390626	70.55318450927736	-189.4863891601563	723.2695922851564	79.46838378906251	-277.0137939453126	672.1414184570314	22.5344352722168	-232.6281890869141	849.2410278320315	21.66672515869141	-287.6815795898438	865.132995605469	35.89457321166993	-228.468246459961	824.7125244140627	22.52062797546387	-171.6789093017578	775.656921386719	1440.223754882813	-272.5499572753907	697.8345336914064	1224.498901367188	-257.9038085937501	933.4945068359377	1156.394897460938	-274.0232543945313	890.8041992187502	1373.087280273438	-275.4640502929688	683.0302734375001	1256.265502929688	-342.4653930664063	729.3724975585939	1392.867553710938	-332.2403259277344	757.2699584960939	1398.403930664063	-402.7536010742189	806.8863525390627	1382.812866210938	-453.794403076172	737.2459106445314	1072.75390625	-501.6181640625001	747.3495483398439	1062.576293945313	-412.1658630371095	721.1450805664064	1044.053466796875	-463.6714782714845	854.315124511719	843.0606689453127	-494.0836181640626	787.5814208984377	846.436950683594	-528.8595581054689	880.3516235351565	765.5166625976564	-515.6735839843751	778.1756591796877	764.6145629882814	-524.8849487304689	696.6685180664064	1256.001220703125	-171.3541259765625	738.7999267578126	1394.1484375	-195.0977935791016	777.181823730469	1398.556518554688	-117.9142684936524	826.1389160156252	1400.033813476563	-89.45081329345705	831.7380981445315	1082.198120117188	-30.82016944885255	839.0532226562502	1069.110961914063	-113.896240234375	825.6868286132815	1054.455200195313	-62.82717514038087	1002.093139648438	897.664978027344	-16.67830848693848	934.8049316406252	875.4218750000002	5.785610675811768	1054.273315429688	828.1313476562502	7.355279922485353	957.588317871094	791.497497558594	0.8103677630424502	
